<svg width="24" height="24" viewBox="0 0 24 24" fill="none" xmlns="http://www.w3.org/2000/svg">
<path d="M12.0005 0.00439453C5.37349 0.00439453 0.000488281 5.37739 0.000488281 12.0044C0.000488281 18.6314 5.37349 24.0044 12.0005 24.0044C18.6275 24.0044 24.0005 18.6314 24.0005 12.0044C24.0005 5.37739 18.6275 0.00439453 12.0005 0.00439453ZM17.8945 8.22539L15.9245 17.5054C15.7795 18.1634 15.3875 18.3234 14.8405 18.0134L11.8405 15.8034L10.3945 17.1974C10.2545 17.3774 10.0375 17.4924 9.79449 17.4924C9.79249 17.4924 9.79149 17.4924 9.78949 17.4924L10.0025 14.4384L15.5625 9.41639C15.8025 9.20339 15.5085 9.08239 15.1895 9.29539L8.32049 13.6214L5.36049 12.6974C4.72049 12.4944 4.70249 12.0574 5.49549 11.7434L17.0615 7.28539C17.5995 7.08939 18.0675 7.41339 17.8935 8.22639L17.8945 8.22539Z" fill="#319597"/>
</svg>
