<svg width="287" height="540" viewBox="0 0 287 540" fill="none" xmlns="http://www.w3.org/2000/svg">
<path d="M280.894 450.102L226.406 450.102L226.406 540L183.191 540L3.28806 448.69L3.28806 395.033L189.768 395.033L189.768 366.793L226.406 366.793L226.406 395.033L280.894 395.033L280.894 450.102ZM189.768 496.228L189.768 450.102L96.293 450.102L189.768 496.228Z" fill="#319597"/>
<path d="M287 269.026C286.687 284.401 283.555 298.05 277.606 309.974C271.343 321.584 261.478 330.684 248.013 337.273C234.235 343.862 216.072 347.157 193.525 347.157L80.7921 347.157C53.2351 347.157 32.8805 339.94 19.7283 325.506C6.57609 310.758 -1.08571e-05 291.618 -1.18858e-05 268.084C-1.28734e-05 245.492 6.57609 227.136 19.7283 213.016C32.8805 198.582 53.2351 191.365 80.7921 191.365L193.056 191.365C216.229 191.365 234.704 194.659 248.483 201.249C262.261 207.524 272.126 216.624 278.075 228.548C284.025 240.158 287 253.65 287 269.026ZM254.589 269.026C254.589 262.122 251.927 256.474 246.604 252.081C240.967 247.688 232.669 245.492 221.709 245.492L65.761 245.492C54.8009 245.492 46.659 247.845 41.3355 252.552C35.6989 256.945 32.8805 262.436 32.8805 269.026C32.8805 275.615 35.6989 281.263 41.3355 285.97C46.659 290.363 54.8009 292.559 65.761 292.559L221.709 292.559C232.669 292.559 240.967 290.363 246.604 285.97C251.927 281.263 254.589 275.615 254.589 269.026Z" fill="black"/>
<path d="M280.894 83.3088L226.406 83.3088L226.406 173.207L183.191 173.207L3.28805 81.8968L3.28804 28.2403L189.768 28.2403L189.768 -8.29501e-06L226.406 -9.89652e-06L226.406 28.2403L280.894 28.2403L280.894 83.3088ZM189.768 129.435L189.768 83.3088L96.293 83.3088L189.768 129.435Z" fill="#319597"/>
</svg>
