<svg width="64" height="65" viewBox="0 0 64 65" fill="none" xmlns="http://www.w3.org/2000/svg">
<path d="M39.0382 24.79C39.0382 20.9093 35.8809 17.752 32.0001 17.752C28.1192 17.752 24.9619 20.9093 24.9619 24.79V27.4721H20.2185V35.5818C20.2839 42.0118 25.5691 47.2431 32.0002 47.2431C38.4312 47.2431 43.7163 42.0118 43.7816 35.5704V27.4721H39.0382L39.0382 24.79ZM41.5317 29.722V35.5589C41.4789 40.761 37.2031 44.9932 32.0001 44.9932C26.7971 44.9932 22.5212 40.761 22.4683 35.5704V29.722H41.5317ZM27.2118 27.4721V24.79C27.2118 22.1499 29.3598 20.0018 32.0001 20.0018C34.6403 20.0018 36.7883 22.1499 36.7883 24.79V27.4721H27.2118Z" fill="#98BBB8"/>
<path d="M59.5762 26.98C57.4914 15.5609 48.4659 6.53532 37.047 4.4506C36.7184 1.95772 34.5812 0.0269775 32 0.0269775C29.4188 0.0269775 27.2815 1.95783 26.9528 4.45071C15.534 6.53546 6.50843 15.5611 4.42379 26.98C1.93081 27.3086 0 29.4459 0 32.0271C0 34.6084 1.93081 36.7454 4.42379 37.074C6.5084 48.493 15.5339 57.5184 26.9528 59.6032C27.2815 62.096 29.4188 64.027 32 64.027C34.5812 64.027 36.7184 62.0961 37.047 59.6032C48.4659 57.5185 57.4916 48.493 59.5762 37.0742C62.0692 36.7456 64 34.6084 64 32.0271C64 29.4459 62.0692 27.3086 59.5762 26.98ZM32 2.27686C33.2158 2.27686 34.2527 3.04556 34.658 4.12127C34.7753 4.43231 34.8425 4.76777 34.8425 5.11933C34.8425 5.56856 34.7348 5.99215 34.5485 6.37022C34.0848 7.3114 33.1182 7.96206 32 7.96206C30.8816 7.96206 29.9151 7.3114 29.4513 6.37022C29.2649 5.99215 29.1574 5.56856 29.1574 5.11933C29.1574 4.7678 29.2245 4.43234 29.3418 4.12127C29.7471 3.04556 30.784 2.27686 32 2.27686ZM4.09439 34.6852C3.01857 34.2797 2.24988 33.243 2.24988 32.0271C2.24988 30.8112 3.01857 29.7743 4.09439 29.3689C4.40543 29.2516 4.74096 29.1845 5.09253 29.1845C5.54168 29.1845 5.96527 29.292 6.34334 29.4784C7.28434 29.9422 7.93499 30.9088 7.93499 32.0271C7.93499 33.1454 7.28434 34.1118 6.34334 34.5757C5.96527 34.7619 5.54168 34.8695 5.09253 34.8695C4.74096 34.8695 4.40543 34.8024 4.09439 34.6852ZM32 61.7771C30.784 61.7771 29.7471 61.0084 29.3418 59.9325C29.2245 59.6215 29.1574 59.286 29.1574 58.9344C29.1574 58.4853 29.2649 58.0617 29.4513 57.6836C29.9151 56.7424 30.8816 56.0919 32 56.0919C33.1182 56.0919 34.0848 56.7424 34.5485 57.6836C34.7348 58.0617 34.8425 58.4853 34.8425 58.9344C34.8425 59.286 34.7753 59.6215 34.658 59.9325C34.2527 61.0084 33.2158 61.7771 32 61.7771ZM36.8394 57.352C36.1721 55.3167 34.2555 53.8421 32 53.8421C29.7445 53.8421 27.8278 55.3167 27.1605 57.352C16.8177 55.3796 8.64734 47.2093 6.67493 36.8664C8.71029 36.1991 10.1849 34.2826 10.1849 32.0271C10.1849 29.7716 8.71029 27.8549 6.67493 27.1876C8.64734 16.8447 16.8177 8.67426 27.1605 6.70185C27.8278 8.73735 29.7445 10.2119 32 10.2119C34.2555 10.2119 36.172 8.73735 36.8394 6.70185C47.1823 8.67426 55.3527 16.8447 57.3251 27.1876C55.2896 27.8549 53.815 29.7716 53.815 32.0271C53.815 34.2826 55.2896 36.1991 57.3251 36.8664C55.3527 47.2093 47.1823 55.3796 36.8394 57.352ZM59.9056 34.6852C59.5945 34.8024 59.2592 34.8695 58.9077 34.8695C58.4583 34.8695 58.0347 34.7619 57.6567 34.5757C56.7155 34.1118 56.0648 33.1454 56.0648 32.0271C56.0648 30.9089 56.7155 29.9423 57.6567 29.4784C58.0347 29.292 58.4583 29.1845 58.9077 29.1845C59.2592 29.1845 59.5945 29.2516 59.9056 29.3689C60.9814 29.7741 61.7501 30.8112 61.7501 32.0271C61.7501 33.243 60.9814 34.2801 59.9056 34.6852Z" fill="#98BBB8"/>
</svg>
