<svg width="55" height="56" viewBox="0 0 55 56" fill="none" xmlns="http://www.w3.org/2000/svg">
<path d="M52.558 0.0269775H2.44216C1.09551 0.0269775 0 1.12227 0 2.46865V52.585C0 53.9314 1.09554 55.027 2.44216 55.027H52.558C53.9044 55.027 55 53.9314 55 52.585V2.46865C55 1.12224 53.9044 0.0269775 52.558 0.0269775ZM37.0413 2.00411H43.8471V20.7748L41.2066 17.3794C41.0236 17.1442 40.7423 17.0065 40.4444 17.0065C40.1464 17.0065 39.8651 17.144 39.6821 17.3794L37.0414 20.775L37.0413 2.00411ZM1.93132 52.585V2.46865C1.93132 2.18734 2.16048 1.95832 2.44216 1.95832H10.0183V53.0956H2.44216C2.16048 53.0956 1.93132 52.8666 1.93132 52.585ZM15.2909 53.0956H11.9496V1.95829H15.2909V53.0956ZM53.0686 52.585C53.0686 52.8666 52.8396 53.0956 52.558 53.0956H17.2222V1.95829H35.11V23.5708C35.11 24.1042 35.5422 24.5365 36.0756 24.5365H36.0904C36.3887 24.5365 36.67 24.3988 36.853 24.1636L40.4443 19.5452L44.0354 24.1636C44.2183 24.3988 44.4996 24.5365 44.7976 24.5365H44.8127C45.3459 24.5365 45.7783 24.1042 45.7783 23.5708V1.95829H52.558C52.8395 1.95829 53.0685 2.18731 53.0685 2.46861L53.0686 52.585Z" fill="#98BBB8"/>
</svg>
