<svg width="55" height="56" viewBox="0 0 55 56" fill="none" xmlns="http://www.w3.org/2000/svg">
<path d="M29.9786 43.9267H24.3769V40.2385C22.2308 40.0469 19.9966 39.4286 18.4808 38.5858L17.8316 38.2246L19.4503 31.8725L20.5328 32.469C21.5806 33.0463 23.7249 34.0151 26.3131 34.0151C27.6511 34.0151 29.0011 33.5882 29.0011 32.6342C29.0011 31.9947 28.5927 31.2642 25.6303 30.2569C22.1769 29.0877 18.2115 27.1399 18.2115 22.4199C18.2115 18.7465 20.6241 15.9263 24.565 14.9114V11.1273H30.1666V14.5083C32.5435 14.7017 34.1035 15.3227 35.1047 15.7967L35.8282 16.1394L34.1982 22.3183L33.1178 21.7968C32.1797 21.3436 30.6096 20.5851 28.1551 20.5851C27.3058 20.5851 25.8808 20.7399 25.8808 21.7767C25.8808 22.5612 27.9548 23.423 29.7619 24.0862C34.6007 25.7903 36.6703 28.1897 36.6703 32.1045C36.6703 34.0541 35.9906 35.8229 34.7043 37.2196C33.5417 38.4823 31.9192 39.3834 29.9786 39.8515V43.9267ZM26.2943 41.9973H28.0612V38.2529L28.857 38.1148C32.4937 37.4839 34.7529 35.1809 34.7529 32.1045C34.7529 29.5738 33.7945 27.5505 29.1167 25.9031C26.2919 24.8664 23.9634 23.8436 23.9634 21.7767C23.9634 20.2679 25.0647 18.6557 28.1551 18.6557C30.2659 18.6557 31.8416 19.1417 32.933 19.5947L33.5584 17.2248C32.5762 16.8369 31.1719 16.4453 29.1793 16.3855L28.2493 16.3575V13.0567H26.4824V16.487L25.6998 16.6342C22.2115 17.2903 20.1288 19.4532 20.1288 22.4199C20.1288 25.1807 21.9574 26.9777 26.2429 28.4285C28.6718 29.2542 30.9185 30.3353 30.9185 32.6342C30.9185 34.6452 29.1108 35.9444 26.3131 35.9444C24.0312 35.9444 22.057 35.3044 20.7081 34.7047L20.0669 37.2209C21.2997 37.7624 23.2116 38.3013 25.3642 38.3659L26.2943 38.3939L26.2943 41.9973Z" fill="#98BBB8"/>
<path d="M42.792 50.769L43.2111 49.8926C43.0295 50.0234 42.8462 50.1524 42.6614 50.2788L42.792 50.769Z" fill="#98BBB8"/>
<path d="M27.328 53.0976C13.3165 53.0976 1.91733 41.6267 1.91733 27.5271C1.91733 13.4273 13.3165 1.9564 27.328 1.9564C41.3395 1.9564 52.739 13.4273 52.739 27.5271C52.739 32.021 51.5794 36.247 49.5478 39.9207L51.4529 40.4342C53.496 36.583 54.6563 32.189 54.6563 27.5271C54.6563 12.3636 42.3969 0.0269775 27.328 0.0269775C12.2593 0.0269775 0 12.3636 0 27.5271C0 42.6907 12.2593 55.027 27.328 55.027C32.1152 55.027 36.6181 53.7804 40.5352 51.5951L40.0229 49.6713C36.2853 51.8495 31.9489 53.0976 27.328 53.0976Z" fill="#98BBB8"/>
<path d="M51.0543 55.027C50.8091 55.027 50.5638 54.9328 50.3765 54.7446L45.7271 50.0659L44.2316 53.1934C44.0577 53.5571 43.6757 53.7737 43.2783 53.7358C42.8792 53.6981 42.5454 53.4144 42.4416 53.0249L39.003 40.1107C38.9145 39.7777 39.0092 39.4225 39.2512 39.1788C39.4936 38.935 39.8464 38.8399 40.1772 38.9291L53.0104 42.3895C53.3975 42.4939 53.6794 42.8298 53.7169 43.2315C53.754 43.633 53.5392 44.0158 53.1779 44.1908L50.07 45.696L54.7194 50.3744C54.8992 50.5553 55 50.8007 55 51.0565C55 51.3124 54.8991 51.5577 54.7194 51.7388L51.7324 54.7446C51.5452 54.9328 51.2996 55.027 51.0543 55.027ZM45.4494 47.4574C45.7014 47.4574 45.9459 47.5575 46.1272 47.74L51.0543 52.6982L52.6857 51.0565L47.7586 46.0987C47.539 45.8774 47.4393 45.563 47.4914 45.2545C47.5436 44.9463 47.7407 44.6828 48.0207 44.5472L50.0175 43.58L41.2849 41.2253L43.6246 50.0129L44.5854 48.0038C44.7202 47.722 44.9823 47.5236 45.2886 47.4711C45.3422 47.462 45.3959 47.4574 45.4494 47.4574Z" fill="#98BBB8"/>
<path d="M34.9319 8.62158C38.372 8.62158 45.068 12.4072 45.068 19.3466C45.068 19.8794 45.497 20.3113 46.0266 20.3113C46.556 20.3113 46.9853 19.8794 46.9853 19.3466C46.9853 15.7345 45.3988 12.3856 42.5183 9.9168C40.2328 7.95793 37.2549 6.69215 34.9318 6.69215C34.4025 6.69215 33.9732 7.12404 33.9732 7.65688C33.9732 8.18973 34.4025 8.62158 34.9319 8.62158Z" fill="#98BBB8"/>
</svg>
