<svg width="57" height="56" viewBox="0 0 57 56" fill="none" xmlns="http://www.w3.org/2000/svg">
<path d="M55.8864 48.8803H45.6265V26.0996H50.5105C51.0631 26.0996 51.511 25.6667 51.511 25.1326V21.7929H55.9995C56.5521 21.7929 57 21.36 57 20.826C57 20.4878 56.8205 20.1902 56.5486 20.0174L29.097 0.2189C28.7419 -0.0369966 28.2553 -0.0369966 27.9002 0.2189L0.40219 20.0509C0.0567378 20.3002 -0.0848212 20.7352 0.0510336 21.1306C0.186825 21.526 0.569545 21.7929 1.00059 21.7929H5.48627V25.1326C5.48627 25.6667 5.93421 26.0996 6.48679 26.0996H11.3707V48.8803H1.111C0.55839 48.8803 0.110484 49.3131 0.110484 49.8473V54.06C0.110484 54.594 0.55839 55.027 1.111 55.027H55.8864C56.4391 55.027 56.887 54.5939 56.887 54.06V49.8473C56.887 49.313 56.4391 48.8803 55.8864 48.8803ZM28.4985 2.2005L52.983 19.859H4.01424L28.4985 2.2005ZM41.2679 48.8476V26.5209H43.6255V48.8476H41.2679ZM39.2669 48.8803H31.6785V26.0996H39.2669V48.8803ZM27.3197 26.5209H29.6775V48.8476H27.3197V26.5209ZM7.48727 21.8869H49.51V24.1657H7.48727V21.8869ZM15.7295 26.5209V48.8476H13.3717V26.5209H15.7295ZM17.7305 26.0996H25.3186V48.8803H17.7305V26.0996ZM54.886 53.093H2.11148V50.8143H54.886V53.093Z" fill="#98BBB8"/>
<path d="M28.5 17.3719C25.8467 17.3719 23.6881 15.2856 23.6881 12.7212C23.6881 10.1567 25.8467 8.07047 28.5 8.07047C31.1535 8.07047 33.312 10.1567 33.312 12.7212C33.312 15.2856 31.1534 17.3719 28.5 17.3719ZM28.5 10.0045C26.9501 10.0045 25.6891 11.2232 25.6891 12.7212C25.6891 14.2192 26.9501 15.4379 28.5 15.4379C30.0501 15.4379 31.3111 14.2192 31.3111 12.7212C31.3111 11.2232 30.05 10.0045 28.5 10.0045Z" fill="#98BBB8"/>
</svg>
