<svg width="543" height="283" viewBox="0 0 543 283" fill="none" xmlns="http://www.w3.org/2000/svg">
<path d="M0.00219727 282.657L44.7271 0.657471H141.314L185.087 282.657H111.339L105.153 236.373H76.6056L71.3718 282.657H0.00219727ZM77.0814 203.927H105.153L91.3553 55.5306L77.0814 203.927Z" fill="#319597"/>
<path d="M203.818 282.657V0.657471H312.776C332.442 0.657471 347.033 5.11094 356.549 14.0179C366.065 22.6067 370.823 34.0585 370.823 48.3732V92.2717C370.823 106.268 367.175 118.674 359.88 129.49C352.901 140.306 341.006 146.509 324.195 148.099V149.053C334.98 150.962 342.592 154.62 347.033 160.028C351.474 165.118 355.28 173.547 358.452 185.317L384.145 282.657H310.873L292.316 189.612C290.73 182.613 289.145 177.047 287.559 172.911C285.973 168.458 283.752 166.231 280.897 166.231H272.809V282.657H203.818ZM272.809 119.947H287.559C293.902 119.947 298.502 117.879 301.357 113.744C304.529 109.608 306.115 102.769 306.115 93.226V60.7793C306.115 51.2361 304.846 44.715 302.308 41.2158C299.771 37.7167 295.647 35.9671 289.938 35.9671H272.809V119.947Z" fill="#319597"/>
<path d="M434.996 282.657V46.9417H393.126V0.657471H543.002V46.9417H500.656V282.657H434.996Z" fill="#319597"/>
</svg>
