<svg width="546" height="285" viewBox="0 0 546 285" fill="none" xmlns="http://www.w3.org/2000/svg">
<path opacity="0.15" d="M143.742 1.15747L143.808 1.58032L187.581 283.58L187.671 284.157H112.902L112.843 283.724L106.715 237.873H79.053L73.8684 283.714L73.8186 284.157H1.41626L1.50806 283.579L46.2336 1.57935L46.3 1.15747H143.742ZM314.776 1.15747C334.501 1.15747 349.238 5.62209 358.884 14.6467L359.332 15.0569C368.667 23.7054 373.323 35.1612 373.323 49.3733V93.2717C373.323 107.357 369.65 119.858 362.299 130.76L362.3 130.761C355.278 141.645 343.37 147.884 326.695 149.552V149.636C337.31 151.573 344.917 155.237 349.409 160.699H349.41C353.785 165.714 357.517 173.865 360.635 185.091L360.935 186.188L360.936 186.19L386.629 283.53L386.794 284.157H312.462L312.382 283.755L293.826 190.709V190.708C292.244 183.727 290.665 178.191 289.092 174.09L289.087 174.079C287.519 169.677 285.418 167.731 282.898 167.731H275.309V284.157H205.319V1.15747H314.776ZM545.502 1.15747V48.4417H503.156V284.157H436.496V48.4417H394.626V1.15747H545.502ZM79.6321 204.427H106.605L93.3459 61.8372L79.6321 204.427ZM275.309 120.447H289.559C295.787 120.446 300.209 118.425 302.946 114.46L302.952 114.449L302.96 114.44C306.029 110.439 307.615 103.739 307.615 94.2258V61.7795C307.615 57.0274 307.298 53.0452 306.672 49.8264C306.045 46.6028 305.113 44.1765 303.904 42.509C301.489 39.1794 297.543 37.4671 291.938 37.467H275.309V120.447Z" stroke="black"/>
</svg>
