<svg width="1920" height="327" viewBox="0 0 1920 327" fill="none" xmlns="http://www.w3.org/2000/svg">
<g opacity="0.05">
<path d="M0 320.588L55.1886 4.80883H141.616L195.763 320.588H128.079L118.708 262.348H73.9319L65.0809 320.588H0ZM74.9732 231.358H118.187L96.8404 59.8431L74.9732 231.358Z" fill="#42C5BD"/>
<path d="M221.588 320.588V4.80883H334.048C354.527 4.80883 369.973 9.61765 380.386 19.2353C390.799 28.4967 396.005 41.4984 396.005 58.2402V107.397C396.005 124.139 391.666 138.209 382.989 149.608C374.311 161.007 360.775 167.596 342.378 169.377C354.18 171.159 362.51 175.255 367.369 181.667C372.576 187.722 377.088 197.696 380.906 211.588L410.063 320.588H342.899L320.511 215.863C318.429 207.314 315.999 200.19 313.222 194.49C310.792 188.435 307.148 185.407 302.289 185.407H284.587V320.588H221.588ZM284.587 142.127H309.578C319.296 142.127 326.238 139.456 330.404 134.113C334.569 128.413 336.651 119.508 336.651 107.397V69.4608C336.651 58.0621 334.742 50.0474 330.924 45.4167C327.106 40.7859 321.205 38.4706 313.222 38.4706H284.587V142.127Z" fill="#42C5BD"/>
<path d="M470.938 320.588V48.6226H423.038V4.80883H579.232V48.6226H531.333V320.588H470.938Z" fill="#42C5BD"/>
<path d="M605.972 320.588V4.80883H715.308C735.787 4.80883 751.233 9.61765 761.646 19.2353C772.406 28.4967 777.786 41.4984 777.786 58.2402V112.74C777.786 126.989 776.05 140.346 772.579 152.814C769.108 164.925 762.861 174.721 753.836 182.201C744.811 189.681 731.795 193.422 714.787 193.422H668.971V320.588H605.972ZM668.971 159.225H692.4C700.73 159.225 706.978 155.129 711.143 146.936C715.308 138.743 717.391 125.208 717.391 106.328V84.9559C717.391 68.2141 715.655 56.281 712.184 49.1569C708.713 42.0327 703.68 38.4706 697.085 38.4706H668.971V159.225Z" fill="#42C5BD"/>
<path d="M810.367 320.588V4.80883H922.827C943.305 4.80883 958.751 9.61765 969.164 19.2353C979.577 28.4967 984.784 41.4984 984.784 58.2402V107.397C984.784 124.139 980.445 138.209 971.768 149.608C963.09 161.007 949.553 167.596 931.157 169.377C942.958 171.159 951.289 175.255 956.148 181.667C961.355 187.722 965.867 197.696 969.685 211.588L998.841 320.588H931.678L909.29 215.863C907.207 207.314 904.778 200.19 902.001 194.49C899.571 188.435 895.927 185.407 891.067 185.407H873.365V320.588H810.367ZM873.365 142.127H898.356C908.075 142.127 915.017 139.456 919.182 134.113C923.347 128.413 925.43 119.508 925.43 107.397V69.4608C925.43 58.0621 923.521 50.0474 919.703 45.4167C915.885 40.7859 909.984 38.4706 902.001 38.4706H873.365V142.127Z" fill="#42C5BD"/>
<path d="M1110.74 327C1093.73 327 1078.81 324.863 1065.96 320.588C1053.12 316.67 1043.06 308.299 1035.77 295.475C1028.82 282.296 1025.35 262.882 1025.35 237.235V71.598C1025.35 52.7189 1028.82 38.1144 1035.77 27.7843C1043.06 17.4542 1053.12 10.3301 1065.96 6.41178C1079.15 2.13726 1094.25 0 1111.26 0C1127.92 0 1142.67 2.13726 1155.52 6.41178C1168.7 10.6863 1178.94 17.9886 1186.23 28.3186C1193.87 38.6487 1197.69 53.0752 1197.69 71.598V236.701C1197.69 262.704 1193.87 282.296 1186.23 295.475C1178.94 308.299 1168.7 316.67 1155.52 320.588C1142.67 324.863 1127.75 327 1110.74 327ZM1110.74 290.667C1115.95 290.667 1120.46 289.776 1124.28 287.995C1128.44 286.214 1131.57 283.186 1133.65 278.912C1136.08 274.281 1137.29 268.047 1137.29 260.211V68.9265C1137.29 61.0899 1136.08 55.0343 1133.65 50.7598C1131.57 46.1291 1128.44 42.9232 1124.28 41.1422C1120.46 39.3611 1115.95 38.4706 1110.74 38.4706C1105.53 38.4706 1101.02 39.3611 1097.2 41.1422C1093.38 42.9232 1090.26 46.1291 1087.83 50.7598C1085.75 55.0343 1084.71 61.0899 1084.71 68.9265V260.211C1084.71 268.047 1085.75 274.281 1087.83 278.912C1090.26 283.186 1093.38 286.214 1097.2 287.995C1101.02 289.776 1105.53 290.667 1110.74 290.667Z" fill="#42C5BD"/>
<path d="M1265.13 320.588V48.6226H1217.23V4.80883H1373.42V48.6226H1325.52V320.588H1265.13Z" fill="#42C5BD"/>
<path d="M1400.16 320.588V4.80883H1541.78V48.6226H1463.16V133.044H1529.8V181.667H1463.16V277.843H1541.78V320.588H1400.16Z" fill="#42C5BD"/>
<path d="M1657.87 320.588C1640.87 320.588 1629.5 320.588 1612.06 320.588C1599.22 316.67 1588.98 308.299 1581.34 295.475C1574.05 282.296 1570.41 262.882 1570.41 237.235V71.598C1570.41 52.7189 1574.05 38.1144 1581.34 27.7843C1588.98 17.4542 1599.39 10.3301 1612.58 6.41178C1628 4.80883 1640.87 4.80883 1657.87 4.80883C1675.23 4.80883 1688 4.80883 1702.65 6.41178C1715.49 10.6863 1725.39 17.9886 1732.33 28.3186C1739.27 38.6487 1742.74 53.0752 1742.74 71.598V136.784H1682.35V68.9265C1682.35 60.3774 1681.3 53.9657 1679.22 49.6912C1677.14 45.0605 1674.19 42.0327 1670.37 40.6078C1666.9 39.183 1662.73 38.4706 1657.87 38.4706C1653.02 38.4706 1648.68 39.183 1644.86 40.6078C1641.04 42.0327 1638.09 45.0605 1636.01 49.6912C1633.93 53.9657 1632.88 60.3774 1632.88 68.9265V260.211C1632.88 268.404 1633.93 274.815 1636.01 279.446C1638.09 283.721 1641.04 286.748 1644.86 288.529C1648.68 289.954 1653.02 290.667 1657.87 290.667C1662.73 290.667 1666.9 289.954 1670.37 288.529C1674.19 286.748 1677.14 283.721 1679.22 279.446C1681.3 274.815 1682.35 268.404 1682.35 260.211V197.696H1742.74V236.701C1742.74 262.704 1739.27 282.296 1732.33 295.475C1725.39 308.299 1715.49 316.67 1702.65 320.588C1682.35 320.588 1675.58 320.588 1657.87 320.588Z" fill="#42C5BD"/>
<path d="M1811.71 320.588V48.6226H1763.81V4.80883H1920V48.6226H1872.1V320.588H1811.71Z" fill="#42C5BD"/>
</g>
</svg>
