<svg width="42" height="29" viewBox="0 0 42 29" fill="none" xmlns="http://www.w3.org/2000/svg">
<path d="M15.3149 12.2165C17.8674 13.8911 19.1436 16.2507 19.1436 19.2953C19.1436 22.2638 18.2155 24.6234 16.3591 26.374C14.5801 28.1247 12.2983 29 9.51381 29C6.80663 29 4.52486 28.1627 2.66851 26.4882C0.889503 24.8136 0 22.6444 0 19.9803C0 17.3163 0.850829 14.6903 2.55249 12.1024L11.0221 0H20.5359L15.3149 12.2165ZM36.779 12.2165C39.3315 13.8911 40.6077 16.2507 40.6077 19.2953C40.6077 22.2638 39.6796 24.6234 37.8232 26.374C36.0442 28.1247 33.7624 29 30.9779 29C28.2707 29 25.989 28.1627 24.1326 26.4882C22.3536 24.8136 21.4641 22.6444 21.4641 19.9803C21.4641 17.3163 22.3149 14.6903 24.0166 12.1024L32.4862 0H42L36.779 12.2165Z" fill="#E4F7F7"/>
</svg>
