<svg width="17" height="16" viewBox="0 0 17 16" fill="none" xmlns="http://www.w3.org/2000/svg">
<g clip-path="url(#clip0_10705_126)">
<path d="M10.0813 16H6.91865C5.38083 16 4.26975 16 3.36931 15.8835C2.3384 15.75 1.63863 15.459 1.10017 14.9401C0.561709 14.4213 0.259743 13.747 0.121213 12.7536C0 11.8857 0 10.8151 0 9.33328V7.8094C0 6.32757 0 5.25694 0.120976 4.38928C0.259506 3.39591 0.561472 2.72163 1.09993 2.20277C1.6384 1.68391 2.33816 1.39294 3.36907 1.25945C4.26975 1.14288 5.38083 1.14288 6.91842 1.14288H10.0811C11.6189 1.14288 12.73 1.14288 13.6305 1.25945C14.6614 1.39294 15.3611 1.68391 15.8996 2.20277C16.4381 2.72163 16.74 3.39591 16.8785 4.38928C16.9995 5.25717 16.9995 6.3278 16.9995 7.8094V9.33328C16.9995 10.8151 16.9995 11.8857 16.8785 12.7534C16.74 13.7468 16.4381 14.4211 15.8996 14.9399C15.3611 15.4588 14.6614 15.7497 13.6305 15.8832C12.7298 15.9998 11.6187 15.9998 10.0811 15.9998L10.0813 16ZM6.91865 2.28574C4.10418 2.28574 2.69136 2.28574 1.9387 3.011C1.18604 3.73625 1.18604 5.09763 1.18604 7.80963V9.33351C1.18604 12.0455 1.18604 13.4069 1.9387 14.1321C2.69136 14.8574 4.10418 14.8574 6.91865 14.8574H10.0813C12.8958 14.8574 14.3086 14.8574 15.0611 14.1321C15.8137 13.4069 15.8137 12.0457 15.8137 9.33351V7.80963C15.8137 5.09763 15.8137 3.73625 15.0611 3.011C14.3084 2.28574 12.8958 2.28574 10.0811 2.28574H6.91842H6.91865Z" fill="#319597"/>
<path d="M4.54663 2.28571C4.21905 2.28571 3.95361 2.02994 3.95361 1.71429V0.571429C3.95361 0.255771 4.21905 0 4.54663 0C4.87422 0 5.13965 0.255771 5.13965 0.571429V1.71429C5.13965 2.02994 4.87422 2.28571 4.54663 2.28571Z" fill="#319597"/>
<path d="M12.4534 2.28571C12.1258 2.28571 11.8604 2.02994 11.8604 1.71429V0.571429C11.8604 0.255771 12.1258 0 12.4534 0C12.781 0 13.0464 0.255771 13.0464 0.571429V1.71429C13.0464 2.02994 12.781 2.28571 12.4534 2.28571Z" fill="#319597"/>
<path d="M16.0116 6.09531H0.988528C0.660944 6.09531 0.395508 5.83954 0.395508 5.52388C0.395508 5.20823 0.660944 4.95245 0.988528 4.95245H16.0116C16.3392 4.95245 16.6047 5.20823 16.6047 5.52388C16.6047 5.83954 16.3392 6.09531 16.0116 6.09531Z" fill="#319597"/>
<path d="M13.2441 11.6189C13.2441 12.0397 12.8902 12.3808 12.4535 12.3808C12.0168 12.3808 11.6628 12.0397 11.6628 11.6189C11.6628 11.1981 12.0168 10.8571 12.4535 10.8571C12.8902 10.8571 13.2441 11.1981 13.2441 11.6189Z" fill="#319597"/>
<path d="M13.2441 8.5714C13.2441 8.9922 12.8902 9.33323 12.4535 9.33323C12.0168 9.33323 11.6628 8.9922 11.6628 8.5714C11.6628 8.1506 12.0168 7.80957 12.4535 7.80957C12.8902 7.80957 13.2441 8.1506 13.2441 8.5714Z" fill="#319597"/>
<path d="M9.2907 11.6189C9.2907 12.0397 8.93679 12.3808 8.50009 12.3808C8.06339 12.3808 7.70947 12.0397 7.70947 11.6189C7.70947 11.1981 8.06339 10.8571 8.50009 10.8571C8.93679 10.8571 9.2907 11.1981 9.2907 11.6189Z" fill="#319597"/>
<path d="M9.2907 8.5714C9.2907 8.9922 8.93679 9.33323 8.50009 9.33323C8.06339 9.33323 7.70947 8.9922 7.70947 8.5714C7.70947 8.1506 8.06339 7.80957 8.50009 7.80957C8.93679 7.80957 9.2907 8.1506 9.2907 8.5714Z" fill="#319597"/>
<path d="M5.33709 11.6189C5.33709 12.0397 4.98317 12.3808 4.54647 12.3808C4.10977 12.3808 3.75586 12.0397 3.75586 11.6189C3.75586 11.1981 4.10977 10.8571 4.54647 10.8571C4.98317 10.8571 5.33709 11.1981 5.33709 11.6189Z" fill="#319597"/>
<path d="M5.33709 8.5714C5.33709 8.9922 4.98317 9.33323 4.54647 9.33323C4.10977 9.33323 3.75586 8.9922 3.75586 8.5714C3.75586 8.1506 4.10977 7.80957 4.54647 7.80957C4.98317 7.80957 5.33709 8.1506 5.33709 8.5714Z" fill="#319597"/>
</g>
<defs>
<clipPath id="clip0_10705_126">
<rect width="17" height="16" fill="white"/>
</clipPath>
</defs>
</svg>
