<svg width="20" height="20" viewBox="0 0 20 20" fill="none" xmlns="http://www.w3.org/2000/svg">
<path fill-rule="evenodd" clip-rule="evenodd" d="M5.50628 0C2.87123 0 0.735107 2.13612 0.735107 4.77117V14.3135C0.735107 16.9486 2.87123 19.0847 5.50628 19.0847H15.0486C17.6837 19.0847 19.8198 16.9486 19.8198 14.3135V4.77117C19.8198 2.13612 17.6837 0 15.0486 0H5.50628ZM10.2775 6.0724C8.36106 6.0724 6.80751 7.62595 6.80751 9.54235C6.80751 11.4587 8.36106 13.0123 10.2775 13.0123C12.1938 13.0123 13.7474 11.4587 13.7474 9.54235C13.7474 7.62595 12.1938 6.0724 10.2775 6.0724ZM5.07254 9.54235C5.07254 6.66775 7.40286 4.33743 10.2775 4.33743C13.152 4.33743 15.4824 6.66775 15.4824 9.54235C15.4824 12.4169 13.152 14.7473 10.2775 14.7473C7.40286 14.7473 5.07254 12.4169 5.07254 9.54235ZM15.4824 2.60246C14.5241 2.60246 13.7474 3.37923 13.7474 4.33743C13.7474 5.29563 14.5241 6.0724 15.4824 6.0724C16.4406 6.0724 17.2173 5.29563 17.2173 4.33743C17.2173 3.37923 16.4406 2.60246 15.4824 2.60246Z" fill="white"/>
</svg>
