<svg width="35" height="45" viewBox="0 0 35 45" fill="none" xmlns="http://www.w3.org/2000/svg">
<g clip-path="url(#clip0_9047_2404)">
<path d="M31.38 45H8.44933C7.78312 45 7.24219 44.4556 7.24219 43.7835C7.24219 43.1115 7.7824 42.5671 8.44933 42.5671H31.3808C32.0463 42.5671 32.5879 42.0212 32.5879 41.3506V8.51369C32.5879 7.84235 33.1281 7.29724 33.7951 7.29724C34.462 7.29724 35.0022 7.84162 35.0022 8.51369V41.3513C35.0022 43.3632 33.378 45 31.3815 45H31.38Z" fill="#319597"/>
<path d="M26.5753 40.2816H3.78075C1.69594 40.2816 0 38.5631 0 36.4505V3.83106C0 1.7185 1.69594 0 3.78075 0H26.5753C28.6601 0 30.3561 1.7185 30.3561 3.83106V36.4513C30.3561 38.5638 28.6601 40.2823 26.5753 40.2823V40.2816ZM3.78075 2.43218C3.02692 2.43218 2.41429 3.05974 2.41429 3.83033V36.4505C2.41429 37.2219 3.02764 37.8487 3.78075 37.8487H26.5753C27.3292 37.8487 27.9418 37.2211 27.9418 36.4505V3.83106C27.9418 3.05974 27.3284 2.43291 26.5753 2.43291H3.78075V2.43218ZM15.178 32.0196C12.6472 32.0196 10.2502 31.1958 8.24582 29.6364C7.47026 29.0329 7.02563 28.1258 7.02563 27.1465C7.02563 26.1672 7.47026 25.2595 8.24582 24.6567C9.70424 23.522 11.3719 22.7762 13.1468 22.4551C12.2807 22.0808 11.4936 21.4634 10.8382 20.6315C9.76434 19.267 9.17344 17.4696 9.17344 15.5694C9.17344 13.6692 9.76434 11.8719 10.8382 10.5073C11.9773 9.06028 13.5161 8.26342 15.1722 8.26342C16.8284 8.26342 18.3679 9.06028 19.5062 10.5073C20.5801 11.8719 21.171 13.6692 21.171 15.5694C21.171 17.4696 20.5794 19.267 19.5062 20.6315C18.8516 21.4627 18.0659 22.08 17.2006 22.4544C18.9783 22.7755 20.6482 23.5213 22.1088 24.6574C22.8844 25.2609 23.329 26.168 23.329 27.1473C23.329 28.1266 22.8844 29.0343 22.1088 29.6371C20.1044 31.1958 17.7075 32.0204 15.1766 32.0204L15.178 32.0196ZM15.178 24.7056C13.1859 24.7056 11.2988 25.3543 9.72089 26.5817C9.47614 26.7722 9.4392 27.0174 9.4392 27.1465C9.4392 27.2757 9.47541 27.5209 9.72017 27.7113C11.2981 28.9387 13.1852 29.5875 15.1773 29.5875C17.1694 29.5875 19.0565 28.9387 20.6345 27.7113C20.8792 27.5209 20.9154 27.2757 20.9154 27.1465C20.9154 27.0174 20.8792 26.7722 20.6345 26.5817C19.0565 25.3543 17.1694 24.7056 15.1773 24.7056H15.178ZM15.173 10.6949C14.2692 10.6949 13.4017 11.1648 12.7304 12.0179C11.994 12.9541 11.5877 14.2151 11.5877 15.5687C11.5877 16.9223 11.9933 18.1833 12.7304 19.1195C13.4017 19.9726 14.2692 20.4425 15.173 20.4425C16.0767 20.4425 16.9449 19.9726 17.6162 19.1195C18.3527 18.1833 18.7589 16.9223 18.7589 15.5687C18.7589 14.2151 18.3534 12.9541 17.6162 12.0179C16.9449 11.1648 16.0774 10.6949 15.173 10.6949Z" fill="#319597"/>
</g>
<defs>
<clipPath id="clip0_9047_2404">
<rect width="35" height="45" fill="white"/>
</clipPath>
</defs>
</svg>
