<svg width="45" height="45" viewBox="0 0 45 45" fill="none" xmlns="http://www.w3.org/2000/svg">
<g clip-path="url(#clip0_9047_2372)">
<path d="M22.5004 45C15.5783 45 9.14293 41.8823 4.84316 36.4468C4.36137 35.8377 4.46431 34.9534 5.0735 34.4716C5.68269 33.9898 6.56695 34.0928 7.04873 34.702C10.811 39.4591 16.4423 42.1869 22.4996 42.1869C27.7587 42.1869 32.7023 40.1391 36.4207 36.4207C40.1391 32.7023 42.1869 27.7579 42.1869 22.4996C42.1869 20.9682 42.0106 19.4435 41.6629 17.9669C41.4849 17.2109 41.9532 16.4541 42.7092 16.276C43.4652 16.098 44.2221 16.5663 44.4001 17.3223C44.7975 19.0098 44.9992 20.7522 44.9992 22.4996C44.9992 28.5096 42.6586 34.1594 38.4086 38.4094C34.1586 42.6594 28.5088 45 22.4987 45H22.5004ZM1.8242 28.1131C1.1686 28.1131 0.582191 27.6524 0.44719 26.9858C0.150188 25.5185 0 24.0099 0 22.5004C0 16.4904 2.34058 10.8406 6.58973 6.59057C10.8397 2.34058 16.4904 0 22.5004 0C29.1847 0 35.4799 2.94386 39.7712 8.07727C40.2691 8.67296 40.1898 9.55975 39.5941 10.0584C38.9984 10.5562 38.1116 10.4769 37.6129 9.88122C33.8574 5.38906 28.3493 2.81224 22.5004 2.81224C17.2413 2.81224 12.2977 4.86003 8.5793 8.57846C4.86087 12.2969 2.81308 17.2413 2.81308 22.4996C2.81308 23.8217 2.94471 25.1431 3.20458 26.4273C3.35899 27.1883 2.86624 27.9308 2.10517 28.0844C2.01067 28.1038 1.91701 28.1122 1.82504 28.1122L1.8242 28.1131Z" fill="#319597"/>
<path d="M39.7262 11.2498H34.1009C33.3238 11.2498 32.6943 10.6204 32.6943 9.84326C32.6943 9.06616 33.3238 8.43672 34.1009 8.43672H38.3197V4.21794C38.3197 3.44084 38.9491 2.8114 39.7262 2.8114C40.5033 2.8114 41.1327 3.44084 41.1327 4.21794V9.84326C41.1327 10.6195 40.5033 11.2498 39.7262 11.2498Z" fill="#319597"/>
<path d="M5.27373 42.1878C4.49663 42.1878 3.86719 41.5583 3.86719 40.7812V35.1559C3.86719 34.3788 4.49663 33.7494 5.27373 33.7494H10.899C11.6753 33.7494 12.3056 34.3788 12.3056 35.1559C12.3056 35.933 11.6761 36.5625 10.899 36.5625H6.68027V40.7812C6.68027 41.5583 6.05083 42.1878 5.27373 42.1878Z" fill="#319597"/>
<path d="M22.5003 35.1568C21.724 35.1568 21.0938 34.5273 21.0938 33.7502V11.2498C21.0938 10.4735 21.7232 9.84326 22.5003 9.84326C23.2774 9.84326 23.9068 10.4727 23.9068 11.2498V33.7502C23.9068 34.5273 23.2774 35.1568 22.5003 35.1568Z" fill="#319597"/>
<path d="M22.5184 32.3892C18.8868 32.3892 16.5471 30.0933 15.8375 27.8186C15.6063 27.0769 16.0206 26.2888 16.7623 26.0577C17.5039 25.8265 18.292 26.2408 18.5232 26.9816C18.9121 28.2312 20.3288 29.5761 22.5184 29.5761C24.5636 29.5761 26.5701 28.2599 26.5701 26.9191C26.5701 25.0257 25.2032 24.441 22.0847 23.5585C20.7676 23.1855 19.4057 22.7999 18.3173 22.1182C16.8694 21.2111 16.1353 19.9219 16.1353 18.2875C16.1353 15.18 18.9391 12.7457 22.5192 12.7457C26.0824 12.7457 28.4997 14.9336 28.9646 16.9923C29.1359 17.75 28.6601 18.5027 27.9032 18.674C27.1455 18.8444 26.3929 18.3694 26.2216 17.6117C26.0275 16.751 24.6328 15.558 22.52 15.558C20.5178 15.558 18.9493 16.7569 18.9493 18.2875C18.9493 19.6097 20.139 20.0839 22.8525 20.8525C24.2978 21.2618 25.7921 21.6845 27.0139 22.4945C28.5866 23.5365 29.3848 25.0257 29.3848 26.92C29.3848 28.41 28.5647 29.8647 27.1345 30.9109C25.8503 31.8509 24.1679 32.3892 22.52 32.3892H22.5184Z" fill="#319597"/>
</g>
<defs>
<clipPath id="clip0_9047_2372">
<rect width="45" height="45" fill="white"/>
</clipPath>
</defs>
</svg>
