<svg width="45" height="45" viewBox="0 0 45 45" fill="none" xmlns="http://www.w3.org/2000/svg">
<g clip-path="url(#clip0_9047_2390)">
<path d="M22.5 45C16.4903 45 10.8398 42.6593 6.59025 38.4098C2.34075 34.1603 0 28.5098 0 22.5C0 16.4903 2.34075 10.8398 6.59025 6.59025C10.8398 2.34075 16.4903 0 22.5 0C28.5098 0 34.1603 2.34075 38.4098 6.59025C42.6593 10.8398 45 16.4903 45 22.5C45 28.5098 42.6593 34.1603 38.4098 38.4098C34.1603 42.6593 28.5098 45 22.5 45ZM22.5 2.49975C17.1578 2.49975 12.1358 4.58025 8.358 8.35725C4.58025 12.135 2.5005 17.157 2.5005 22.4993C2.5005 27.8415 4.581 32.8643 8.358 36.6413C12.1358 40.419 17.1578 42.4988 22.5 42.4988C27.8423 42.4988 32.865 40.4183 36.642 36.6413C40.419 32.8643 42.4995 27.8415 42.4995 22.4993C42.4995 17.157 40.419 12.135 36.642 8.35725C32.8643 4.5795 27.8423 2.49975 22.5 2.49975Z" fill="#319597"/>
<path d="M29.5 30.75C29.1797 30.75 28.8603 30.6278 28.6158 30.384L21.616 23.3843C21.3813 23.1495 21.25 22.8315 21.25 22.5V9.99976C21.25 9.30976 21.8095 8.74951 22.5003 8.74951C23.191 8.74951 23.7505 9.30901 23.7505 9.99976V21.9818L30.3842 28.6155C30.8725 29.1038 30.8725 29.895 30.3842 30.3833C30.1405 30.627 29.8202 30.7493 29.5 30.7493V30.75Z" fill="#319597"/>
</g>
<defs>
<clipPath id="clip0_9047_2390">
<rect width="45" height="45" fill="white"/>
</clipPath>
</defs>
</svg>
