<svg width="176" height="743" viewBox="0 0 176 743" fill="none" xmlns="http://www.w3.org/2000/svg">
<path d="M3.451 -7.54236e-06L173.412 -1.13135e-07L173.412 64.345C173.412 76.3252 170.728 85.2137 165.359 91.0106C160.183 96.8074 153.281 99.7058 144.654 99.7058L115.608 99.7058C107.556 99.7058 99.9826 98.7397 92.8889 96.8074C85.9869 94.8751 80.427 91.397 76.2092 86.3731C71.9913 81.5424 69.8824 74.4895 69.8824 65.2146L69.8824 42.0272L3.451 42.0272L3.451 -7.54236e-06ZM91.451 42.0272L91.451 50.1428C91.451 53.4276 93.5599 55.843 97.7778 57.3888C101.996 58.9346 109.377 59.7076 119.922 59.7076L126.824 59.7076C136.026 59.7076 142.545 59.1279 146.379 57.9685C150.214 56.8091 152.131 54.6836 152.131 51.592L152.131 42.0272L91.451 42.0272Z" fill="black"/>
<path d="M3.451 114.918L173.412 114.918L173.412 181.292C173.412 193.272 170.728 202.161 165.359 207.957C160.183 213.754 153.281 216.653 144.654 216.653L118.196 216.653C109.76 216.653 102.283 214.431 95.7647 209.986C89.2462 205.735 85.5076 198.489 84.549 188.248L83.9739 188.248C82.8235 194.818 80.6187 199.455 77.3595 202.161C74.2919 204.866 69.2113 207.185 62.1177 209.117L3.45099 224.768L3.451 180.133L59.5294 168.829C63.7473 167.863 67.1024 166.896 69.5948 165.93C72.2789 164.964 73.6209 163.612 73.6209 161.873L73.6209 156.945L3.451 156.945L3.451 114.918ZM101.516 156.945L101.516 165.93C101.516 169.795 102.763 172.597 105.255 174.336C107.747 176.268 111.869 177.234 117.621 177.234L137.176 177.234C142.928 177.234 146.858 176.461 148.967 174.915C151.076 173.37 152.131 170.858 152.131 167.38L152.131 156.945L101.516 156.945Z" fill="black"/>
<path d="M1.8059e-05 285.019C1.84897e-05 275.165 1.15035 266.469 3.45099 258.934C5.94338 251.591 10.8323 245.794 18.1177 241.543C25.4031 237.485 36.3312 235.456 50.902 235.456L137.464 235.456C147.242 235.456 154.911 237.485 160.471 241.543C166.03 245.794 169.961 251.591 172.261 258.934C174.754 266.469 176 275.165 176 285.019C176 294.874 174.754 303.569 172.261 311.105C169.961 318.641 166.03 324.535 160.471 328.786C154.911 333.23 147.242 335.452 137.464 335.452L51.1895 335.452C36.427 335.452 25.4031 333.23 18.1177 328.786C10.8323 324.535 5.94338 318.641 3.45099 311.105C1.15035 303.569 1.76282e-05 294.874 1.8059e-05 285.019ZM23.2941 285.019C23.2941 286.952 23.6776 288.691 24.4445 290.237C25.2113 291.976 26.4575 293.232 28.183 294.004C30.1002 294.777 32.5926 295.164 35.6601 295.164L139.19 295.164C142.065 295.164 144.462 294.777 146.379 294.004C148.296 293.232 149.638 291.976 150.405 290.237C151.172 288.691 151.556 286.952 151.556 285.019C151.556 283.087 151.172 281.348 150.405 279.802C149.638 278.256 148.296 277 146.379 276.034C144.462 275.261 142.065 274.875 139.19 274.875L35.6601 274.875C32.5926 274.875 30.1002 275.261 28.183 276.034C26.4575 277 25.2113 278.256 24.4445 279.802C23.6776 281.348 23.2941 283.087 23.2941 285.019Z" fill="black"/>
<path d="M3.45099 370.097L145.516 370.097L145.516 344.591L173.412 344.591L173.412 435.891L145.516 435.891L145.516 410.095L3.45099 410.095L3.45099 370.097Z" fill="black"/>
<path d="M3.45098 447.784L173.412 447.784L173.412 528.94L145.516 528.94L145.516 489.811L106.405 489.811L106.405 524.013L75.0588 524.013L75.0588 489.811L30.7712 489.811L30.7712 528.94L3.45098 528.94L3.45098 447.784Z" fill="black"/>
<path d="M4.60891e-06 592.721C5.04812e-06 582.673 1.15034 573.881 3.45098 566.345C5.94337 558.81 10.8323 552.82 18.1177 548.375C25.4031 544.124 36.3311 541.999 50.9019 541.999L137.464 541.999C147.242 541.999 154.911 544.124 160.471 548.375C166.03 552.82 169.961 558.81 172.261 566.345C174.754 574.075 176 582.867 176 592.721C176 602.962 174.754 611.754 172.261 619.097C169.961 626.44 166.03 632.043 160.471 635.908C154.911 639.965 147.242 641.994 137.464 641.994L99.7908 641.994L99.7908 601.706L139.19 601.706C142.64 601.706 145.229 601.32 146.954 600.547C148.68 599.774 149.83 598.711 150.405 597.359C151.172 596.199 151.556 594.653 151.556 592.721C151.556 590.982 151.172 589.436 150.405 588.084C149.83 586.731 148.68 585.668 146.954 584.895C145.229 584.122 142.641 583.736 139.19 583.736L35.6601 583.736C32.4009 583.736 29.8126 584.122 27.8954 584.895C25.9782 585.668 24.732 586.731 24.1569 588.084C23.5817 589.436 23.2941 590.982 23.2941 592.721C23.2941 594.653 23.5817 596.199 24.1569 597.359C24.732 598.711 25.9782 599.774 27.8954 600.547C29.8126 601.32 32.4009 601.706 35.6601 601.706L72.183 601.706L72.183 641.994L51.1895 641.994C36.427 641.994 25.403 639.965 18.1176 635.908C10.8322 632.043 5.94336 626.44 3.45098 619.097C1.15033 611.754 4.16126e-06 602.962 4.60891e-06 592.721Z" fill="black"/>
<path d="M3.45097 677.206L145.516 677.206L145.516 651.7L173.412 651.7L173.412 743L145.516 743L145.516 717.204L3.45097 717.204L3.45097 677.206Z" fill="black"/>
</svg>
