<svg width="174" height="723" viewBox="0 0 174 723" fill="none" xmlns="http://www.w3.org/2000/svg">
<g opacity="0.15">
<mask id="path-1-outside-1_9047_404" maskUnits="userSpaceOnUse" x="-0.797395" y="0.000114508" width="174" height="723" fill="black">
<rect fill="white" x="-0.797395" y="0.000114508" width="174" height="723"/>
<path d="M4.35825 1.00011L169.685 1.00012L169.685 63.4202C169.685 75.0419 167.074 83.6645 161.852 89.2879C156.817 94.9114 150.103 97.7231 141.711 97.7231L113.457 97.7231C105.624 97.7231 98.2579 96.7858 91.3576 94.9114C84.6438 93.0369 79.2355 89.6628 75.1326 84.7892C71.0298 80.103 68.9783 73.2612 68.9783 64.2637L68.9783 41.77L4.35824 41.77L4.35825 1.00011ZM89.9589 41.77L89.9589 49.6428C89.9589 52.8294 92.0103 55.1725 96.1132 56.6721C100.216 58.1716 107.396 58.9214 117.653 58.9214L124.367 58.9214C133.319 58.9214 139.659 58.3591 143.389 57.2344C147.119 56.1097 148.984 54.0478 148.984 51.0486L148.984 41.77L89.9589 41.77Z"/>
<path d="M4.35824 112.48L169.685 112.48L169.685 176.868C169.685 188.49 167.074 197.113 161.852 202.736C156.817 208.36 150.103 211.171 141.711 211.171L115.975 211.171C107.769 211.171 100.496 209.016 94.155 204.704C87.8142 200.581 84.1776 193.551 83.2451 183.617L82.6856 183.617C81.5666 189.99 79.422 194.488 76.2516 197.113C73.2677 199.737 68.3256 201.986 61.4253 203.861L4.35824 219.044L4.35824 175.744L58.9077 164.778C63.0105 163.841 66.2742 162.904 68.6986 161.966C71.3095 161.029 72.615 159.717 72.615 158.03L72.615 153.25L4.35824 153.25L4.35824 112.48ZM99.7498 153.25L99.7498 161.966C99.7498 165.715 100.962 168.433 103.386 170.12C105.811 171.995 109.82 172.932 115.415 172.932L134.438 172.932C140.032 172.932 143.856 172.182 145.907 170.683C147.958 169.183 148.984 166.746 148.984 163.372L148.984 153.25L99.7498 153.25Z"/>
<path d="M1.00135 277.493C1.00135 267.933 2.1203 259.498 4.35823 252.187C6.78264 245.064 11.5382 239.441 18.625 235.317C25.7118 231.381 36.3419 229.412 50.5154 229.412L134.717 229.412C144.229 229.412 151.688 231.381 157.097 235.317C162.505 239.441 166.328 245.064 168.566 252.187C170.99 259.498 172.203 267.933 172.203 277.493C172.203 287.052 170.99 295.488 168.566 302.798C166.328 310.109 162.505 315.826 157.097 319.95C151.688 324.261 144.229 326.416 134.717 326.416L50.7952 326.416C36.4352 326.416 25.7118 324.261 18.625 319.95C11.5382 315.826 6.78264 310.109 4.35823 302.798C2.1203 295.488 1.00135 287.052 1.00135 277.493ZM23.6603 277.493C23.6603 279.367 24.0333 281.054 24.7793 282.554C25.5253 284.241 26.7375 285.459 28.4159 286.209C30.2809 286.959 32.7053 287.334 35.6892 287.334L136.396 287.334C139.193 287.334 141.524 286.959 143.389 286.209C145.254 285.459 146.56 284.241 147.306 282.554C148.052 281.054 148.425 279.367 148.425 277.493C148.425 275.618 148.052 273.931 147.306 272.432C146.56 270.932 145.254 269.714 143.389 268.776C141.524 268.027 139.193 267.652 136.396 267.652L35.6892 267.652C32.7053 267.652 30.2809 268.027 28.4159 268.776C26.7375 269.714 25.5253 270.932 24.7793 272.432C24.0333 273.931 23.6603 275.618 23.6603 277.493Z"/>
<path d="M4.35823 360.025L142.55 360.025L142.55 335.282L169.685 335.282L169.685 423.851L142.55 423.851L142.55 398.827L4.35823 398.827L4.35823 360.025Z"/>
<path d="M4.35823 435.388L169.685 435.388L169.685 514.116L142.55 514.116L142.55 476.158L104.505 476.158L104.505 509.336L74.0136 509.336L74.0136 476.158L30.9336 476.158L30.9336 514.116L4.35822 514.116L4.35823 435.388Z"/>
<path d="M1.00133 575.989C1.00133 566.242 2.12029 557.713 4.35822 550.402C6.78263 543.092 11.5382 537.281 18.625 532.97C25.7118 528.846 36.3419 526.784 50.5154 526.784L134.717 526.784C144.229 526.784 151.688 528.846 157.097 532.97C162.505 537.281 166.328 543.092 168.566 550.402C170.99 557.9 172.203 566.429 172.203 575.989C172.203 585.924 170.99 594.453 168.566 601.576C166.328 608.699 162.505 614.135 157.097 617.884C151.688 621.82 144.229 623.788 134.717 623.788L98.0713 623.788L98.0713 584.705L136.396 584.705C139.753 584.705 142.27 584.33 143.949 583.581C145.627 582.831 146.746 581.8 147.306 580.488C148.052 579.363 148.425 577.863 148.425 575.989C148.425 574.302 148.052 572.802 147.306 571.49C146.746 570.178 145.627 569.147 143.949 568.397C142.27 567.648 139.753 567.273 136.396 567.273L35.6892 567.273C32.5188 567.273 30.0011 567.648 28.1362 568.397C26.2712 569.147 25.059 570.178 24.4995 571.49C23.9401 572.802 23.6603 574.302 23.6603 575.989C23.6603 577.863 23.9401 579.363 24.4995 580.488C25.059 581.8 26.2712 582.831 28.1362 583.581C30.0011 584.33 32.5188 584.705 35.6892 584.705L71.2162 584.705L71.2162 623.788L50.7952 623.788C36.4351 623.788 25.7117 621.82 18.625 617.884C11.5382 614.135 6.78263 608.699 4.35822 601.576C2.12029 594.453 1.00133 585.924 1.00133 575.989Z"/>
<path d="M4.35822 657.946L142.55 657.946L142.55 633.203L169.685 633.203L169.685 721.772L142.55 721.772L142.55 696.748L4.35822 696.748L4.35822 657.946Z"/>
</mask>
<path d="M4.35825 1.00011L169.685 1.00012L169.685 63.4202C169.685 75.0419 167.074 83.6645 161.852 89.2879C156.817 94.9114 150.103 97.7231 141.711 97.7231L113.457 97.7231C105.624 97.7231 98.2579 96.7858 91.3576 94.9114C84.6438 93.0369 79.2355 89.6628 75.1326 84.7892C71.0298 80.103 68.9783 73.2612 68.9783 64.2637L68.9783 41.77L4.35824 41.77L4.35825 1.00011ZM89.9589 41.77L89.9589 49.6428C89.9589 52.8294 92.0103 55.1725 96.1132 56.6721C100.216 58.1716 107.396 58.9214 117.653 58.9214L124.367 58.9214C133.319 58.9214 139.659 58.3591 143.389 57.2344C147.119 56.1097 148.984 54.0478 148.984 51.0486L148.984 41.77L89.9589 41.77Z" stroke="black" stroke-width="2" mask="url(#path-1-outside-1_9047_404)"/>
<path d="M4.35824 112.48L169.685 112.48L169.685 176.868C169.685 188.49 167.074 197.113 161.852 202.736C156.817 208.36 150.103 211.171 141.711 211.171L115.975 211.171C107.769 211.171 100.496 209.016 94.155 204.704C87.8142 200.581 84.1776 193.551 83.2451 183.617L82.6856 183.617C81.5666 189.99 79.422 194.488 76.2516 197.113C73.2677 199.737 68.3256 201.986 61.4253 203.861L4.35824 219.044L4.35824 175.744L58.9077 164.778C63.0105 163.841 66.2742 162.904 68.6986 161.966C71.3095 161.029 72.615 159.717 72.615 158.03L72.615 153.25L4.35824 153.25L4.35824 112.48ZM99.7498 153.25L99.7498 161.966C99.7498 165.715 100.962 168.433 103.386 170.12C105.811 171.995 109.82 172.932 115.415 172.932L134.438 172.932C140.032 172.932 143.856 172.182 145.907 170.683C147.958 169.183 148.984 166.746 148.984 163.372L148.984 153.25L99.7498 153.25Z" stroke="black" stroke-width="2" mask="url(#path-1-outside-1_9047_404)"/>
<path d="M1.00135 277.493C1.00135 267.933 2.1203 259.498 4.35823 252.187C6.78264 245.064 11.5382 239.441 18.625 235.317C25.7118 231.381 36.3419 229.412 50.5154 229.412L134.717 229.412C144.229 229.412 151.688 231.381 157.097 235.317C162.505 239.441 166.328 245.064 168.566 252.187C170.99 259.498 172.203 267.933 172.203 277.493C172.203 287.052 170.99 295.488 168.566 302.798C166.328 310.109 162.505 315.826 157.097 319.95C151.688 324.261 144.229 326.416 134.717 326.416L50.7952 326.416C36.4352 326.416 25.7118 324.261 18.625 319.95C11.5382 315.826 6.78264 310.109 4.35823 302.798C2.1203 295.488 1.00135 287.052 1.00135 277.493ZM23.6603 277.493C23.6603 279.367 24.0333 281.054 24.7793 282.554C25.5253 284.241 26.7375 285.459 28.4159 286.209C30.2809 286.959 32.7053 287.334 35.6892 287.334L136.396 287.334C139.193 287.334 141.524 286.959 143.389 286.209C145.254 285.459 146.56 284.241 147.306 282.554C148.052 281.054 148.425 279.367 148.425 277.493C148.425 275.618 148.052 273.931 147.306 272.432C146.56 270.932 145.254 269.714 143.389 268.776C141.524 268.027 139.193 267.652 136.396 267.652L35.6892 267.652C32.7053 267.652 30.2809 268.027 28.4159 268.776C26.7375 269.714 25.5253 270.932 24.7793 272.432C24.0333 273.931 23.6603 275.618 23.6603 277.493Z" stroke="black" stroke-width="2" mask="url(#path-1-outside-1_9047_404)"/>
<path d="M4.35823 360.025L142.55 360.025L142.55 335.282L169.685 335.282L169.685 423.851L142.55 423.851L142.55 398.827L4.35823 398.827L4.35823 360.025Z" stroke="black" stroke-width="2" mask="url(#path-1-outside-1_9047_404)"/>
<path d="M4.35823 435.388L169.685 435.388L169.685 514.116L142.55 514.116L142.55 476.158L104.505 476.158L104.505 509.336L74.0136 509.336L74.0136 476.158L30.9336 476.158L30.9336 514.116L4.35822 514.116L4.35823 435.388Z" stroke="black" stroke-width="2" mask="url(#path-1-outside-1_9047_404)"/>
<path d="M1.00133 575.989C1.00133 566.242 2.12029 557.713 4.35822 550.402C6.78263 543.092 11.5382 537.281 18.625 532.97C25.7118 528.846 36.3419 526.784 50.5154 526.784L134.717 526.784C144.229 526.784 151.688 528.846 157.097 532.97C162.505 537.281 166.328 543.092 168.566 550.402C170.99 557.9 172.203 566.429 172.203 575.989C172.203 585.924 170.99 594.453 168.566 601.576C166.328 608.699 162.505 614.135 157.097 617.884C151.688 621.82 144.229 623.788 134.717 623.788L98.0713 623.788L98.0713 584.705L136.396 584.705C139.753 584.705 142.27 584.33 143.949 583.581C145.627 582.831 146.746 581.8 147.306 580.488C148.052 579.363 148.425 577.863 148.425 575.989C148.425 574.302 148.052 572.802 147.306 571.49C146.746 570.178 145.627 569.147 143.949 568.397C142.27 567.648 139.753 567.273 136.396 567.273L35.6892 567.273C32.5188 567.273 30.0011 567.648 28.1362 568.397C26.2712 569.147 25.059 570.178 24.4995 571.49C23.9401 572.802 23.6603 574.302 23.6603 575.989C23.6603 577.863 23.9401 579.363 24.4995 580.488C25.059 581.8 26.2712 582.831 28.1362 583.581C30.0011 584.33 32.5188 584.705 35.6892 584.705L71.2162 584.705L71.2162 623.788L50.7952 623.788C36.4351 623.788 25.7117 621.82 18.625 617.884C11.5382 614.135 6.78263 608.699 4.35822 601.576C2.12029 594.453 1.00133 585.924 1.00133 575.989Z" stroke="black" stroke-width="2" mask="url(#path-1-outside-1_9047_404)"/>
<path d="M4.35822 657.946L142.55 657.946L142.55 633.203L169.685 633.203L169.685 721.772L142.55 721.772L142.55 696.748L4.35822 696.748L4.35822 657.946Z" stroke="black" stroke-width="2" mask="url(#path-1-outside-1_9047_404)"/>
</g>
</svg>
