<svg width="131" height="131" viewBox="0 0 131 131" fill="none" xmlns="http://www.w3.org/2000/svg">
<circle cx="65.5" cy="65.5" r="45.5" fill="#319597"/>
<circle cx="65.5" cy="65.5" r="65" stroke="#E4F7F7"/>
<path d="M55.7377 73.8408L71.7551 58.4283C71.7655 58.4184 71.7728 58.4133 71.7766 58.4109C71.7926 58.415 71.8173 58.4355 71.8239 58.4505C71.8222 58.4549 71.818 58.4631 71.81 58.4744L59.7898 75.3588C59.7873 75.3622 59.7853 75.3663 59.7828 75.3697C59.7759 75.38 59.7689 75.3906 59.7623 75.4015C59.7606 75.4042 59.7592 75.4069 59.7578 75.4097C59.7411 75.4383 59.7261 75.4683 59.714 75.5004C59.675 75.6034 59.6663 75.7099 59.683 75.8112L60.0377 80.1662L55.7377 73.8408ZM61.3637 81L61.0076 76.6265L64.3385 77.8365L61.3637 81ZM77.998 51.6106L75.5769 79.9213C75.5634 80.0819 75.4771 80.2228 75.3401 80.3085C75.2031 80.3937 75.0372 80.4108 74.8832 80.3549L65.7114 77.0229C65.6735 77.0048 65.6345 76.9905 65.5946 76.9806L61.281 75.4134L72.8387 59.1792C73.2292 58.631 73.1346 57.9193 72.6144 57.4874C72.0942 57.0556 71.3635 57.0818 70.8766 57.5499L54.773 73.0452L46.2376 69.9439C46.0443 69.8736 46.0081 69.7075 46.0019 69.6393C45.9956 69.5717 45.9991 69.4035 46.173 69.3008L77.1401 51.0815C77.4065 50.9242 77.6412 51.0327 77.7296 51.0869C77.916 51.2005 78.0161 51.3964 77.998 51.6106Z" fill="white"/>
</svg>
