<svg width="543" height="462" viewBox="0 0 543 462" fill="none" xmlns="http://www.w3.org/2000/svg">
<g opacity="0.15">
<mask id="path-1-outside-1_9047_1905" maskUnits="userSpaceOnUse" x="1" y="332.427" width="537" height="130" fill="black">
<rect fill="white" x="1" y="332.427" width="537" height="130"/>
<path d="M2 457.942L2 335.295L48.2622 335.295C56.8756 335.295 63.2662 337.232 67.4339 341.106C71.6017 344.841 73.6856 349.822 73.6856 356.047L73.6856 377.007C73.6856 382.818 72.991 388.283 71.6017 393.402C70.2125 398.382 67.7118 402.394 64.0997 405.438C60.6266 408.482 55.5558 410.004 48.8874 410.004L32.2163 410.004L32.2163 457.942L2 457.942ZM32.2163 394.439H38.0512C40.4129 394.439 42.1495 392.917 43.2609 389.874C44.3723 386.83 44.928 381.504 44.928 373.894L44.928 368.914C44.928 362.273 44.5112 357.569 43.6777 354.802C42.8441 352.035 41.3159 350.652 39.0931 350.652H32.2163L32.2163 394.439Z"/>
<path d="M84.6227 457.942L84.6227 335.295L132.344 335.295C140.957 335.295 147.348 337.232 151.515 341.106C155.683 344.841 157.767 349.822 157.767 356.047L157.767 375.14C157.767 381.227 156.169 386.623 152.974 391.326C149.918 396.03 144.708 398.728 137.345 399.42V399.835C142.068 400.665 145.403 402.256 147.348 404.608C149.293 406.822 150.96 410.488 152.349 415.607L163.602 457.942L131.51 457.942L123.383 417.474C122.688 414.431 121.994 412.01 121.299 410.211C120.604 408.274 119.632 407.306 118.382 407.306H114.839L114.839 457.942L84.6227 457.942ZM114.839 387.176L121.299 387.176C124.078 387.176 126.092 386.277 127.342 384.478C128.732 382.68 129.426 379.705 129.426 375.555V361.443C129.426 357.293 128.871 354.456 127.759 352.935C126.648 351.413 124.842 350.652 122.341 350.652L114.839 350.652L114.839 387.176Z"/>
<path d="M206.921 460.432C199.835 460.432 193.584 459.602 188.166 457.942C182.887 456.143 178.719 452.615 175.662 447.358C172.745 442.101 171.286 434.215 171.286 423.7L171.286 361.235C171.286 354.18 172.745 348.646 175.662 344.634C178.719 340.621 182.887 337.785 188.166 336.125C193.584 334.327 199.835 333.427 206.921 333.427C214.006 333.427 220.257 334.327 225.676 336.125C231.094 337.785 235.331 340.621 238.387 344.634C241.583 348.646 243.18 354.18 243.18 361.235L243.18 423.493C243.18 434.146 241.583 442.101 238.387 447.358C235.331 452.615 231.094 456.143 225.676 457.942C220.257 459.602 214.006 460.432 206.921 460.432ZM206.921 443.623C208.31 443.623 209.56 443.346 210.672 442.792C211.922 442.239 212.825 441.34 213.381 440.095C213.936 438.711 214.214 436.913 214.214 434.699L214.214 359.99C214.214 357.915 213.936 356.186 213.381 354.802C212.825 353.419 211.922 352.45 210.672 351.897C209.56 351.343 208.31 351.067 206.921 351.067C205.531 351.067 204.281 351.343 203.17 351.897C202.058 352.45 201.155 353.419 200.461 354.802C199.905 356.186 199.627 357.915 199.627 359.99L199.627 434.699C199.627 436.913 199.905 438.711 200.461 440.095C201.155 441.34 202.058 442.239 203.17 442.792C204.281 443.346 205.531 443.623 206.921 443.623Z"/>
<path d="M268.089 457.942L268.089 355.425H249.751L249.751 335.295L315.393 335.295L315.393 355.425H296.847L296.847 457.942L268.089 457.942Z"/>
<path d="M323.944 457.942L323.944 335.295L382.292 335.295L382.292 355.425L354.16 355.425L354.16 383.648H378.75V406.268H354.16L354.16 438.227L382.292 438.227L382.292 457.942L323.944 457.942Z"/>
<path d="M428.149 460.432C420.925 460.432 414.604 459.602 409.186 457.942C403.768 456.143 399.461 452.615 396.266 447.358C393.21 442.101 391.681 434.215 391.681 423.7L391.681 361.235C391.681 354.18 393.21 348.646 396.266 344.634C399.461 340.621 403.768 337.785 409.186 336.125C414.743 334.327 421.064 333.427 428.149 333.427C435.512 333.427 441.833 334.327 447.113 336.125C452.392 337.785 456.421 340.621 459.199 344.634C462.117 348.646 463.575 354.18 463.575 361.235L463.575 388.421L434.609 388.421L434.609 359.99C434.609 357.5 434.331 355.632 433.776 354.387C433.22 353.142 432.456 352.312 431.483 351.897C430.65 351.343 429.539 351.067 428.149 351.067C426.899 351.067 425.788 351.343 424.815 351.897C423.843 352.312 423.078 353.142 422.523 354.387C421.967 355.632 421.689 357.5 421.689 359.99L421.689 434.699C421.689 437.051 421.967 438.919 422.523 440.302C423.078 441.686 423.843 442.585 424.815 443C425.788 443.415 426.899 443.623 428.149 443.623C429.539 443.623 430.65 443.415 431.483 443C432.456 442.585 433.22 441.686 433.776 440.302C434.331 438.919 434.609 437.051 434.609 434.699L434.609 408.343L463.575 408.343L463.575 423.493C463.575 434.146 462.117 442.101 459.199 447.358C456.421 452.615 452.392 456.143 447.113 457.942C441.833 459.602 435.512 460.432 428.149 460.432Z"/>
<path d="M488.891 457.942L488.891 355.425L470.553 355.425L470.553 335.295L536.195 335.295V355.425H517.649L517.649 457.942L488.891 457.942Z"/>
</mask>
<path d="M2 457.942L2 335.295L48.2622 335.295C56.8756 335.295 63.2662 337.232 67.4339 341.106C71.6017 344.841 73.6856 349.822 73.6856 356.047L73.6856 377.007C73.6856 382.818 72.991 388.283 71.6017 393.402C70.2125 398.382 67.7118 402.394 64.0997 405.438C60.6266 408.482 55.5558 410.004 48.8874 410.004L32.2163 410.004L32.2163 457.942L2 457.942ZM32.2163 394.439H38.0512C40.4129 394.439 42.1495 392.917 43.2609 389.874C44.3723 386.83 44.928 381.504 44.928 373.894L44.928 368.914C44.928 362.273 44.5112 357.569 43.6777 354.802C42.8441 352.035 41.3159 350.652 39.0931 350.652H32.2163L32.2163 394.439Z" stroke="black" stroke-width="2" mask="url(#path-1-outside-1_9047_1905)"/>
<path d="M84.6227 457.942L84.6227 335.295L132.344 335.295C140.957 335.295 147.348 337.232 151.515 341.106C155.683 344.841 157.767 349.822 157.767 356.047L157.767 375.14C157.767 381.227 156.169 386.623 152.974 391.326C149.918 396.03 144.708 398.728 137.345 399.42V399.835C142.068 400.665 145.403 402.256 147.348 404.608C149.293 406.822 150.96 410.488 152.349 415.607L163.602 457.942L131.51 457.942L123.383 417.474C122.688 414.431 121.994 412.01 121.299 410.211C120.604 408.274 119.632 407.306 118.382 407.306H114.839L114.839 457.942L84.6227 457.942ZM114.839 387.176L121.299 387.176C124.078 387.176 126.092 386.277 127.342 384.478C128.732 382.68 129.426 379.705 129.426 375.555V361.443C129.426 357.293 128.871 354.456 127.759 352.935C126.648 351.413 124.842 350.652 122.341 350.652L114.839 350.652L114.839 387.176Z" stroke="black" stroke-width="2" mask="url(#path-1-outside-1_9047_1905)"/>
<path d="M206.921 460.432C199.835 460.432 193.584 459.602 188.166 457.942C182.887 456.143 178.719 452.615 175.662 447.358C172.745 442.101 171.286 434.215 171.286 423.7L171.286 361.235C171.286 354.18 172.745 348.646 175.662 344.634C178.719 340.621 182.887 337.785 188.166 336.125C193.584 334.327 199.835 333.427 206.921 333.427C214.006 333.427 220.257 334.327 225.676 336.125C231.094 337.785 235.331 340.621 238.387 344.634C241.583 348.646 243.18 354.18 243.18 361.235L243.18 423.493C243.18 434.146 241.583 442.101 238.387 447.358C235.331 452.615 231.094 456.143 225.676 457.942C220.257 459.602 214.006 460.432 206.921 460.432ZM206.921 443.623C208.31 443.623 209.56 443.346 210.672 442.792C211.922 442.239 212.825 441.34 213.381 440.095C213.936 438.711 214.214 436.913 214.214 434.699L214.214 359.99C214.214 357.915 213.936 356.186 213.381 354.802C212.825 353.419 211.922 352.45 210.672 351.897C209.56 351.343 208.31 351.067 206.921 351.067C205.531 351.067 204.281 351.343 203.17 351.897C202.058 352.45 201.155 353.419 200.461 354.802C199.905 356.186 199.627 357.915 199.627 359.99L199.627 434.699C199.627 436.913 199.905 438.711 200.461 440.095C201.155 441.34 202.058 442.239 203.17 442.792C204.281 443.346 205.531 443.623 206.921 443.623Z" stroke="black" stroke-width="2" mask="url(#path-1-outside-1_9047_1905)"/>
<path d="M268.089 457.942L268.089 355.425H249.751L249.751 335.295L315.393 335.295L315.393 355.425H296.847L296.847 457.942L268.089 457.942Z" stroke="black" stroke-width="2" mask="url(#path-1-outside-1_9047_1905)"/>
<path d="M323.944 457.942L323.944 335.295L382.292 335.295L382.292 355.425L354.16 355.425L354.16 383.648H378.75V406.268H354.16L354.16 438.227L382.292 438.227L382.292 457.942L323.944 457.942Z" stroke="black" stroke-width="2" mask="url(#path-1-outside-1_9047_1905)"/>
<path d="M428.149 460.432C420.925 460.432 414.604 459.602 409.186 457.942C403.768 456.143 399.461 452.615 396.266 447.358C393.21 442.101 391.681 434.215 391.681 423.7L391.681 361.235C391.681 354.18 393.21 348.646 396.266 344.634C399.461 340.621 403.768 337.785 409.186 336.125C414.743 334.327 421.064 333.427 428.149 333.427C435.512 333.427 441.833 334.327 447.113 336.125C452.392 337.785 456.421 340.621 459.199 344.634C462.117 348.646 463.575 354.18 463.575 361.235L463.575 388.421L434.609 388.421L434.609 359.99C434.609 357.5 434.331 355.632 433.776 354.387C433.22 353.142 432.456 352.312 431.483 351.897C430.65 351.343 429.539 351.067 428.149 351.067C426.899 351.067 425.788 351.343 424.815 351.897C423.843 352.312 423.078 353.142 422.523 354.387C421.967 355.632 421.689 357.5 421.689 359.99L421.689 434.699C421.689 437.051 421.967 438.919 422.523 440.302C423.078 441.686 423.843 442.585 424.815 443C425.788 443.415 426.899 443.623 428.149 443.623C429.539 443.623 430.65 443.415 431.483 443C432.456 442.585 433.22 441.686 433.776 440.302C434.331 438.919 434.609 437.051 434.609 434.699L434.609 408.343L463.575 408.343L463.575 423.493C463.575 434.146 462.117 442.101 459.199 447.358C456.421 452.615 452.392 456.143 447.113 457.942C441.833 459.602 435.512 460.432 428.149 460.432Z" stroke="black" stroke-width="2" mask="url(#path-1-outside-1_9047_1905)"/>
<path d="M488.891 457.942L488.891 355.425L470.553 355.425L470.553 335.295L536.195 335.295V355.425H517.649L517.649 457.942L488.891 457.942Z" stroke="black" stroke-width="2" mask="url(#path-1-outside-1_9047_1905)"/>
</g>
<path d="M7.81641 451.155L7.81641 328.508L54.0786 328.508C62.692 328.508 69.0826 330.445 73.2503 334.319C77.4181 338.055 79.502 343.035 79.502 349.261L79.502 370.221C79.502 376.031 78.8074 381.496 77.4181 386.615C76.0289 391.596 73.5282 395.608 69.9161 398.652C66.443 401.695 61.3722 403.217 54.7038 403.217L38.0327 403.217L38.0327 451.155L7.81641 451.155ZM38.0327 387.653H43.8676C46.2293 387.653 47.9659 386.131 49.0773 383.087C50.1887 380.044 50.7444 374.717 50.7444 367.108L50.7444 362.127C50.7444 355.487 50.3276 350.783 49.4941 348.016C48.6605 345.249 47.1323 343.865 44.9095 343.865H38.0327L38.0327 387.653Z" fill="black"/>
<path d="M90.4391 451.155L90.4391 328.508L138.16 328.508C146.773 328.508 153.164 330.445 157.332 334.319C161.5 338.055 163.583 343.035 163.583 349.261L163.583 368.353C163.583 374.44 161.986 379.836 158.791 384.54C155.734 389.244 150.524 391.942 143.161 392.633V393.048C147.885 393.878 151.219 395.469 153.164 397.821C155.109 400.035 156.776 403.701 158.165 408.82L169.418 451.155L137.327 451.155L129.199 410.688C128.505 407.644 127.81 405.223 127.115 403.425C126.421 401.488 125.448 400.519 124.198 400.519H120.655L120.655 451.155L90.4391 451.155ZM120.655 380.389L127.115 380.389C129.894 380.389 131.908 379.49 133.159 377.692C134.548 375.893 135.243 372.919 135.243 368.768V354.656C135.243 350.506 134.687 347.67 133.576 346.148C132.464 344.626 130.658 343.865 128.157 343.865L120.655 343.865L120.655 380.389Z" fill="black"/>
<path d="M212.737 453.645C205.652 453.645 199.4 452.815 193.982 451.155C188.703 449.357 184.535 445.829 181.479 440.571C178.561 435.314 177.103 427.428 177.103 416.914L177.103 354.449C177.103 347.393 178.561 341.859 181.479 337.847C184.535 333.835 188.703 330.999 193.982 329.339C199.4 327.54 205.652 326.641 212.737 326.641C219.822 326.641 226.074 327.54 231.492 329.339C236.91 330.999 241.147 333.835 244.204 337.847C247.399 341.859 248.997 347.393 248.997 354.449L248.997 416.706C248.997 427.359 247.399 435.314 244.204 440.571C241.147 445.829 236.91 449.357 231.492 451.155C226.074 452.815 219.822 453.645 212.737 453.645ZM212.737 436.836C214.126 436.836 215.377 436.559 216.488 436.006C217.738 435.452 218.641 434.553 219.197 433.308C219.753 431.925 220.031 430.126 220.031 427.912L220.031 353.204C220.031 351.129 219.753 349.399 219.197 348.016C218.641 346.632 217.738 345.664 216.488 345.11C215.377 344.557 214.126 344.28 212.737 344.28C211.348 344.28 210.097 344.557 208.986 345.11C207.875 345.664 206.972 346.632 206.277 348.016C205.721 349.399 205.443 351.129 205.443 353.204L205.443 427.912C205.443 430.126 205.721 431.925 206.277 433.308C206.972 434.553 207.875 435.452 208.986 436.006C210.097 436.559 211.348 436.836 212.737 436.836Z" fill="black"/>
<path d="M273.906 451.155L273.906 348.638H255.567L255.567 328.508L321.21 328.508L321.21 348.638H302.663L302.663 451.155L273.906 451.155Z" fill="black"/>
<path d="M329.76 451.155L329.76 328.508L388.109 328.508L388.109 348.638L359.976 348.638L359.976 376.862H384.566V399.482H359.976L359.976 431.44L388.109 431.44L388.109 451.155L329.76 451.155Z" fill="black"/>
<path d="M433.966 453.645C426.742 453.645 420.42 452.815 415.002 451.155C409.584 449.357 405.278 445.829 402.082 440.571C399.026 435.314 397.498 427.428 397.498 416.914L397.498 354.449C397.498 347.393 399.026 341.859 402.082 337.847C405.278 333.835 409.584 330.999 415.002 329.339C420.559 327.54 426.88 326.641 433.966 326.641C441.329 326.641 447.65 327.54 452.929 329.339C458.208 330.999 462.237 333.835 465.016 337.847C467.933 341.859 469.392 347.393 469.392 354.449L469.392 381.635L440.426 381.635L440.426 353.204C440.426 350.713 440.148 348.846 439.592 347.601C439.036 346.355 438.272 345.525 437.3 345.11C436.466 344.557 435.355 344.28 433.966 344.28C432.715 344.28 431.604 344.557 430.631 345.11C429.659 345.525 428.895 346.355 428.339 347.601C427.784 348.846 427.506 350.713 427.506 353.204L427.506 427.912C427.506 430.264 427.784 432.132 428.339 433.516C428.895 434.899 429.659 435.798 430.631 436.213C431.604 436.628 432.715 436.836 433.966 436.836C435.355 436.836 436.466 436.628 437.3 436.213C438.272 435.798 439.036 434.899 439.592 433.516C440.148 432.132 440.426 430.264 440.426 427.912L440.426 401.557L469.392 401.557L469.392 416.706C469.392 427.359 467.933 435.314 465.016 440.571C462.237 445.829 458.208 449.357 452.929 451.155C447.65 452.815 441.329 453.645 433.966 453.645Z" fill="black"/>
<path d="M494.708 451.155L494.708 348.638L476.369 348.638L476.369 328.508L542.012 328.508V348.638H523.465L523.465 451.155L494.708 451.155Z" fill="black"/>
<path opacity="0.15" d="M139.431 14.0425L139.496 14.4654L181.935 287.865L182.024 288.442H109.503L109.445 288.008L103.506 243.569H76.7139L71.6895 287.999L71.6396 288.442H1.41406L1.50586 287.864L44.8672 14.4644L44.9336 14.0425H139.431ZM305.234 14.0425C324.36 14.0425 338.652 18.3715 348.008 27.1246L348.442 27.522C357.496 35.91 362.012 47.0209 362.012 60.8033V103.363C362.012 117.021 358.45 129.144 351.321 139.716C344.512 150.27 332.968 156.317 316.806 157.937V157.996C327.1 159.876 334.478 163.431 338.834 168.735H338.833C343.073 173.6 346.689 181.501 349.71 192.378L350.001 193.441V193.443L374.911 287.814L375.076 288.442H302.979L302.899 288.04L284.911 197.843V197.844C283.376 191.071 281.845 185.7 280.319 181.722L280.315 181.711C278.796 177.444 276.762 175.566 274.328 175.566H266.986V288.442H199.1V14.0425H305.234ZM528.939 14.0425V59.9156H487.885V288.442H423.228V59.9156H382.634V14.0425H528.939ZM77.2793 211.112H103.396L90.5576 73.0494L77.2793 211.112ZM266.986 129.694H280.786C286.821 129.694 291.102 127.734 293.752 123.896L293.759 123.885L293.767 123.876C296.739 120.001 298.276 113.51 298.276 104.288V72.8306C298.276 68.2242 297.97 64.3649 297.363 61.2457C296.755 58.1216 295.852 55.7719 294.682 54.1578C292.344 50.9347 288.524 49.275 283.093 49.275H266.986V129.694Z" stroke="black"/>
<path d="M15.5723 273.399L58.9332 0H152.574L195.013 273.399H123.513L117.517 228.527H89.8394L84.7652 273.399H15.5723ZM90.3007 197.07H117.517L104.139 53.1996L90.3007 197.07Z" fill="#319597"/>
<path d="M213.172 273.399V0H318.807C337.873 0 352.019 4.31764 361.245 12.9529C370.471 21.2798 375.084 32.3823 375.084 46.2605V88.8201C375.084 102.39 371.547 114.418 364.474 124.903C357.709 135.389 346.176 141.403 329.878 142.945V143.87C340.333 145.721 347.714 149.267 352.019 154.51C356.325 159.444 360.015 167.617 363.09 179.028L388 273.399H316.962L298.971 183.191C297.434 176.407 295.896 171.01 294.359 167C292.821 162.683 290.668 160.524 287.901 160.524H280.059V273.399H213.172ZM280.059 115.651H294.359C300.509 115.651 304.968 113.647 307.736 109.637C310.811 105.628 312.349 98.9974 312.349 89.7453V58.2882C312.349 49.0361 311.119 42.7138 308.658 39.3214C306.198 35.929 302.2 34.2328 296.665 34.2328H280.059V115.651Z" fill="#319597"/>
<path d="M437.3 273.399V44.8727H396.706V0H542.012V44.8727H500.957V273.399H437.3Z" fill="#319597"/>
</svg>
