<svg width="23" height="23" viewBox="0 0 23 23" fill="none" xmlns="http://www.w3.org/2000/svg">
<path fill-rule="evenodd" clip-rule="evenodd" d="M18.1947 16.2437C17.9175 17.0282 16.8158 17.6772 15.9372 17.867C15.3357 17.9947 14.5514 18.0957 11.9087 17.0006C8.94058 15.7709 4.81899 11.3905 4.81899 8.47554C4.81899 6.99159 5.67459 5.26362 7.17074 5.26362C7.89064 5.26362 8.04934 5.27766 8.28624 5.84592C8.56339 6.51543 9.23959 8.16494 9.32009 8.33403C9.65244 9.02769 8.98198 9.43376 8.49553 10.0377C8.34028 10.2194 8.16434 10.416 8.36099 10.7542C8.55649 11.0855 9.23269 12.1876 10.2263 13.0722C11.5097 14.2156 12.5504 14.5807 12.923 14.736C13.2002 14.851 13.5314 14.8242 13.7338 14.6079C13.9902 14.3307 14.3088 13.8707 14.6331 13.4175C14.8619 13.0931 15.1529 13.0526 15.4576 13.1676C15.6635 13.2389 18.2797 14.454 18.3901 14.6484C18.4718 14.7899 18.4718 15.4591 18.1947 16.2437ZM11.5028 0.00439453H11.497C5.15708 0.00439453 0.000488281 5.16255 0.000488281 11.5044C0.000488281 14.0191 0.811246 16.352 2.1901 18.2444L0.757194 22.5176L5.17665 21.1053C6.9948 22.3086 9.16484 23.0044 11.5028 23.0044C17.8427 23.0044 23.0005 17.8462 23.0005 11.5044C23.0005 5.16255 17.8427 0.00439453 11.5028 0.00439453Z" fill="#319597"/>
</svg>
