<svg width="13" height="20" viewBox="0 0 13 20" fill="none" xmlns="http://www.w3.org/2000/svg">
<path d="M0.00292969 16.2448V14.925H9.25425V16.2448H0.00292969ZM2.51351 20.0011V0.00109863H9.0823C10.2745 0.00109863 11.226 0.283106 11.9368 0.847121C12.6476 1.38858 13.0029 2.22332 13.0029 3.35135V6.97233C13.0029 7.76196 12.8883 8.50646 12.659 9.20584C12.4297 9.90522 12.0056 10.4692 11.3865 10.8979C10.7904 11.3265 9.90769 11.5409 8.73838 11.5409H5.26483V20.0011H2.51351ZM5.26483 10.018H7.87859C8.70399 10.018 9.32304 9.74729 9.73573 9.20584C10.1484 8.66438 10.3548 7.80708 10.3548 6.63392V4.40042C10.3548 3.38519 10.1599 2.65197 9.77013 2.20076C9.40328 1.72699 8.93326 1.4901 8.36007 1.4901H5.26483V10.018Z" fill="#319597"/>
</svg>
